<?xml version="1.0" encoding="UTF-8" standalone="no"?>
<!DOCTYPE svg PUBLIC "-//W3C//DTD SVG 1.1//EN" "http://www.w3.org/Graphics/SVG/1.1/DTD/svg11.dtd">
<svg width="100%" height="100%" viewBox="0 0 342 342" version="1.1" xmlns="http://www.w3.org/2000/svg" xmlns:xlink="http://www.w3.org/1999/xlink" xml:space="preserve" xmlns:serif="http://www.serif.com/" style="fill-rule:evenodd;clip-rule:evenodd;stroke-linejoin:round;stroke-miterlimit:1.41421;">
    <circle cx="170.667" cy="170.667" r="170.667" style="fill:rgb(243,93,77);"/>
    <g transform="matrix(0.868503,0,0,0.868503,22.4422,22.4422)">
        <circle cx="170.667" cy="170.667" r="170.667" style="fill:rgb(231,76,60);"/>
        <clipPath id="_clip1">
            <circle cx="170.667" cy="170.667" r="170.667"/>
        </clipPath>
        <g clip-path="url(#_clip1)">
            <g id="MU" transform="matrix(0.63954,0,0,0.63954,29.9208,-147.955)">
                <g id="path12" transform="matrix(2.43071,0,0,2.43071,-89.5982,190.428)">
                    <path d="M117.9,127.7L208.9,127.7L208.9,102.3C208.9,83.1 203.8,72.8 175.7,67.8C166.2,66.1 155.3,65.2 143.9,65.1C132.6,65.1 96.1,66 84.7,67.8C66.7,70.8 51.5,84.3 51.5,102.3L51.5,165.6C51.5,171.9 47.2,513.1 45.9,537.6L120.3,515.2L117.9,136.1L117.9,127.7Z" style="fill:rgb(52,73,94);fill-rule:nonzero;"/>
                </g>
                <g id="Eye" transform="matrix(2.43071,0,0,2.43071,-89.5982,190.428)">
                    <path d="M195.7,97.8C195.7,106.4 188.7,113.4 180.2,113.4C171.6,113.4 164.7,106.4 164.7,97.8C164.7,89.2 171.7,82.3 180.2,82.3C188.7,82.3 195.7,89.3 195.7,97.8Z" style="fill:rgb(236,240,241);fill-rule:nonzero;"/>
                </g>
            </g>
        </g>
    </g>
</svg>
